<svg id="visual" viewBox="0 0 1920 900" width="1920" height="900" xmlns="http://www.w3.org/2000/svg" xmlns:xlink="http://www.w3.org/1999/xlink" version="1.1"><rect width="1920" height="900" fill="#ffffff"></rect><g><g transform="translate(1289 222)"><path d="M0 -86.9L75.2 -43.4L75.2 43.4L0 86.9L-75.2 43.4L-75.2 -43.4Z" fill="#53bdee"></path></g><g transform="translate(1388 41)"><path d="M0 -65L56.3 -32.5L56.3 32.5L0 65L-56.3 32.5L-56.3 -32.5Z" fill="#53bdee"></path></g><g transform="translate(1342 605)"><path d="M0 -60L52 -30L52 30L0 60L-52 30L-52 -30Z" fill="#53bdee"></path></g><g transform="translate(1747 518)"><path d="M0 -57L49.4 -28.5L49.4 28.5L0 57L-49.4 28.5L-49.4 -28.5Z" fill="#53bdee"></path></g><g transform="translate(359 364)"><path d="M0 -68L58.9 -34L58.9 34L0 68L-58.9 34L-58.9 -34Z" fill="#53bdee"></path></g><g transform="translate(1669 690)"><path d="M0 -85L73.6 -42.5L73.6 42.5L0 85L-73.6 42.5L-73.6 -42.5Z" fill="#53bdee"></path></g><g transform="translate(838 238)"><path d="M0 -59L51.1 -29.5L51.1 29.5L0 59L-51.1 29.5L-51.1 -29.5Z" fill="#53bdee"></path></g><g transform="translate(1158 886)"><path d="M0 -82L71 -41L71 41L0 82L-71 41L-71 -41Z" fill="#53bdee"></path></g><g transform="translate(323 549)"><path d="M0 -46L39.8 -23L39.8 23L0 46L-39.8 23L-39.8 -23Z" fill="#53bdee"></path></g><g transform="translate(894 812)"><path d="M0 -54L46.8 -27L46.8 27L0 54L-46.8 27L-46.8 -27Z" fill="#53bdee"></path></g><g transform="translate(739 469)"><path d="M0 -59L51.1 -29.5L51.1 29.5L0 59L-51.1 29.5L-51.1 -29.5Z" fill="#53bdee"></path></g><g transform="translate(1588 48)"><path d="M0 -78L67.5 -39L67.5 39L0 78L-67.5 39L-67.5 -39Z" fill="#53bdee"></path></g><g transform="translate(1076 179)"><path d="M0 -47L40.7 -23.5L40.7 23.5L0 47L-40.7 23.5L-40.7 -23.5Z" fill="#53bdee"></path></g><g transform="translate(1907 806)"><path d="M0 -72L62.4 -36L62.4 36L0 72L-62.4 36L-62.4 -36Z" fill="#53bdee"></path></g></g></svg>